<svg width="32" height="32" viewBox="0 0 32 32" xmlns="http://www.w3.org/2000/svg">
  <rect width="32" height="32" fill="#000000"/>
  <g fill="#212166">
    <!-- Circular outline -->
    <path d="M8 16 Q8 8 16 8 Q24 8 24 16 Q24 24 16 24 Q8 24 8 16 Z" fill="none" stroke="#212166" stroke-width="2"/>
    
    <!-- Letter A -->
    <path d="M10 24 L14 12 L18 12 L22 24 L20 24 L19 20 L13 20 L12 24 Z M14 18 L18 18 L16 14 Z" fill="#212166"/>
    
    <!-- Letter N -->
    <path d="M24 24 L24 12 L26 12 L26 20 L30 12 L32 12 L32 24 L30 24 L30 16 L26 24 Z" fill="#212166"/>
  </g>
</svg>
